<?xml version="1.0" encoding="UTF-8" standalone="no"?>
<!DOCTYPE svg PUBLIC "-//W3C//DTD SVG 1.1//EN" "http://www.w3.org/Graphics/SVG/1.1/DTD/svg11.dtd">
<svg width="100%" height="100%" viewBox="0 0 250 250" version="1.1" xmlns="http://www.w3.org/2000/svg" xmlns:xlink="http://www.w3.org/1999/xlink" xml:space="preserve" xmlns:serif="http://www.serif.com/" style="fill-rule:evenodd;clip-rule:evenodd;stroke-linejoin:round;stroke-miterlimit:2;">
    <g transform="matrix(0.996804,0,0,1.02175,158.581,97.1069)">
        <path d="M0,0C1.19,0.327 2.38,0.655 3.605,0.992C22.055,6.293 39.041,14.788 49.125,31.91C52.053,38.089 52.442,43.635 50.875,50.125C50.142,53.458 49.95,54.817 50.875,58.188C53.302,61.399 56.049,63.705 59.125,66.277C62.557,69.43 63.817,72.507 64.375,77.063C63.936,80.5 63.212,82.331 61,85C58.313,85.813 58.313,85.813 56,86C56.495,87.114 56.99,88.228 57.5,89.375C59.285,94.151 59.876,98.952 59,104C58.228,104.868 58.228,104.868 57.441,105.754C55.169,109.294 56.113,112.633 56.563,116.688C57.114,123.551 57.567,129.354 53,135C48.305,139.759 41.544,140.833 34.989,142.506C31.119,143.494 27.677,145.907 23.813,146.121C22.208,146.124 20.603,146.07 19,146C19,146.66 18.143,147.983 17.27,147.965C12.479,147.912 7.777,148.068 3.004,148.496C-3.965,149.05 -10.887,149.145 -17.875,149.133C-19.161,149.134 -20.447,149.135 -21.771,149.136C-24.477,149.137 -27.183,149.135 -29.889,149.13C-33.29,149.125 -36.69,149.128 -40.091,149.134C-54.085,149.154 -68.035,149.022 -82.008,148.214C-85.822,147.952 -85.822,147.952 -88.93,148.094C-91,148 -91,148 -93,146C-95.584,145.258 -98.134,144.6 -100.75,144C-115.163,140.621 -115.163,140.621 -118.313,136.063C-118.804,135.373 -119.295,134.683 -119.801,133.973C-122.999,128.712 -122.83,121.723 -121.516,115.828C-121.325,115.225 -121.134,114.622 -120.938,114C-119.677,110.994 -119.677,110.994 -121,108L-123,108C-126.13,104.269 -126.449,100.965 -126.301,96.285C-125.839,92.775 -124.607,90.149 -123,87C-122.505,86.01 -122.505,86.01 -122,85C-124.076,84.447 -125.844,84 -128,84C-129.688,82.313 -129.688,82.313 -131,80C-131,75.111 -128.052,70.659 -125,67C-122.924,65.47 -120.853,64.212 -118.574,63.008C-117.795,62.509 -117.795,62.509 -117,62L-117,60L-115,60C-114.67,57.03 -114.34,54.06 -114,51L-116,51C-116.66,50.34 -117.32,49.68 -118,49C-118.99,48.34 -120.01,46.505 -119,46C-118.379,43.656 -118.379,43.656 -118,40.875C-115.849,28.199 -115.849,28.199 -110,23C-108.828,21.818 -107.662,20.63 -106.5,19.438C-101.517,14.349 -96.421,10.968 -90,8C-89.245,7.65 -88.491,7.301 -87.713,6.941C-61.124,-5.119 -28.242,-7.837 0,0Z" style="fill:rgb(54,22,12);fill-rule:nonzero;"/>
    </g>
    <g transform="matrix(0.996804,0,0,1.02175,147.616,1.0626)">
        <path d="M0,0C-0.938,2.891 -1.909,5.76 -2.988,8.602C-8.146,22.217 -8.375,34.689 -3.086,48.363C0.199,55.455 5.071,59.598 12,63L16,63L16,58L17,58C16.55,50.673 15.455,43.583 14.016,36.396C13.449,33.538 13,30.923 13,28C13.86,28.678 14.72,29.356 15.605,30.055C16.799,30.995 17.993,31.935 19.188,32.875C19.812,33.367 20.436,33.86 21.079,34.367C24.304,36.905 27.543,39.421 30.824,41.887C31.421,42.337 32.019,42.788 32.634,43.252C33.781,44.115 34.932,44.973 36.087,45.826C37.428,46.837 38.719,47.913 40,49L40,51C40.576,51.245 41.152,51.49 41.746,51.742C58.667,61.185 69.726,87.775 75.048,105.224C75.648,107.166 76.318,109.086 77,111C77.66,111.33 78.32,111.66 79,112C79.061,110.964 79.121,109.927 79.184,108.859C79.268,107.49 79.353,106.12 79.438,104.75C79.477,104.068 79.516,103.386 79.557,102.684C79.767,99.356 80.019,96.197 81,93C90.246,103.691 95.642,115.359 99,129C99.186,129.735 99.372,130.47 99.564,131.228C101.199,138.376 101.347,145.376 101.313,152.688C101.307,153.93 101.301,155.173 101.295,156.454C100.979,180.404 92.859,203.468 76,221L74,221C72.822,213.126 73.201,206.763 75.23,199.07C76.239,195.046 76.65,191.128 77,187C76.34,186.67 75.68,186.34 75,186L75,182C75.99,181.67 76.98,181.34 78,181C80.777,175.637 81.512,172.019 79.863,166.184C78.469,162.658 76.762,159.628 74,157C70.576,154.696 72.105,155.715 69,154L64,154C64.977,152.307 65.953,150.615 66.93,148.922C67.283,148.288 67.636,147.653 68,147C68.549,146.099 68.549,146.099 69.109,145.18C71.773,138.66 70.737,129.958 68.313,123.5C66.424,119.439 64.066,116.285 61,113C60.606,112.471 60.211,111.943 59.805,111.398C51.245,100.174 35.604,91.957 22,89L19,89C18.01,88.34 17.02,87.68 16,87C13.714,86.759 13.714,86.759 11.313,86.875C10.504,86.893 9.696,86.911 8.863,86.93C8.248,86.953 7.634,86.976 7,87L7,85C-26.17,79.276 -63.061,82.95 -92,101C-102.558,108.487 -109.858,116.573 -114,129C-114.608,136.754 -114.68,143.358 -110.777,150.23C-110,152 -110,152 -111,155C-112.392,155.433 -112.392,155.433 -113.813,155.875C-117.592,157.209 -118.704,158.802 -121,162C-121.66,162.33 -122.32,162.66 -123,163C-124.261,167.161 -124.663,171.695 -124,176C-123.01,177.33 -123.01,177.33 -122,178.688C-119.303,183.154 -119.732,186.665 -119.957,191.781C-120,195.017 -119.754,197.854 -119,201C-118.34,201.33 -117.68,201.66 -117,202C-117.114,204.772 -117.241,207.542 -117.375,210.313C-117.406,211.098 -117.437,211.884 -117.469,212.693C-117.507,213.451 -117.546,214.208 -117.586,214.988C-117.617,215.685 -117.649,216.381 -117.681,217.099C-118,219 -118,219 -120,222C-132.372,210.02 -144.334,191.91 -145.133,174.027C-145.089,173.358 -145.045,172.689 -145,172C-145.99,171.67 -146.33,168.896 -146.5,167.813C-147.695,158.013 -147.158,148.617 -145,139C-144.34,139.33 -143.68,139.66 -143,140C-142.358,142.566 -141.978,145.138 -141.563,147.75C-141.284,148.864 -141.284,148.864 -141,150C-140.34,150.33 -139.68,150.66 -139,151C-138.67,151.33 -138.34,151.66 -138,152C-137.966,151.433 -137.931,150.866 -137.896,150.282C-135.915,119.764 -126.832,94.208 -108,70C-106.937,68.587 -106.937,68.587 -105.852,67.145C-105.241,66.437 -104.63,65.729 -104,65L-102,65C-101.777,64.442 -101.554,63.884 -101.324,63.309C-97.249,56.204 -88.853,50.374 -82,46L-80,46C-80.165,47.093 -80.33,48.186 -80.5,49.313C-81.509,57.694 -81.969,65.346 -78,73C-75.04,74.191 -74.122,74.041 -71,73C-70.155,71.258 -70.155,71.258 -69.676,69.09C-69.345,67.863 -69.345,67.863 -69.009,66.611C-68.779,65.729 -68.549,64.847 -68.313,63.938C-65.952,55.424 -62.804,47.862 -58.637,40.09C-56.938,37.087 -56.938,37.087 -56,34C-54.885,32.851 -53.762,31.708 -52.602,30.605C-49.824,27.821 -47.322,24.784 -44.77,21.793C-44.186,21.201 -43.602,20.61 -43,20L-41,20L-41,18C-39.32,16.563 -39.32,16.563 -37.125,15C-34.902,13.406 -32.938,11.938 -31,10C-28.681,8.797 -26.369,7.658 -24,6.563C-23.326,6.25 -22.652,5.938 -21.957,5.617C-14.885,2.406 -7.921,-0.625 0,0Z" style="fill:rgb(246,45,1);fill-rule:nonzero;"/>
    </g>
    <g transform="matrix(0.996804,0,0,1.02175,158.581,97.1069)">
        <path d="M0,0C1.785,0.491 1.785,0.491 3.605,0.992C22.055,6.293 39.041,14.788 49.125,31.91C52.502,39.038 52.316,45.149 50.277,52.508C49.917,55.747 50.822,58 52,61C-4.272,66.259 -60.617,65.671 -117,63L-117,60L-115,60C-114.67,57.03 -114.34,54.06 -114,51L-116,51C-116.66,50.34 -117.32,49.68 -118,49C-118.99,48.34 -120.01,46.505 -119,46C-118.379,43.656 -118.379,43.656 -118,40.875C-115.849,28.199 -115.849,28.199 -110,23C-108.828,21.818 -107.662,20.63 -106.5,19.438C-101.517,14.349 -96.421,10.968 -90,8C-89.245,7.65 -88.491,7.301 -87.713,6.941C-61.124,-5.119 -28.242,-7.837 0,0Z" style="fill:rgb(254,164,21);fill-rule:nonzero;"/>
    </g>
    <g transform="matrix(0.996804,0,0,1.02175,159.535,97.0752)">
        <path d="M0,0C0.776,0.238 1.552,0.475 2.352,0.72C3.178,0.988 4.004,1.255 4.855,1.531C5.706,1.805 6.556,2.079 7.431,2.362C24.133,7.925 38.992,16.362 48.168,31.941C51.545,39.069 51.359,45.18 49.32,52.539C48.96,55.778 49.865,58.031 51.043,61.031C-5.229,66.29 -61.574,65.702 -117.957,63.031L-117.957,60.031L-115.957,60.031C-115.627,57.061 -115.297,54.091 -114.957,51.031L-116.957,51.031C-117.617,50.371 -118.277,49.711 -118.957,49.031C-119.947,48.371 -120.967,46.536 -119.957,46.031C-119.299,43.002 -119.299,43.002 -118.957,40.031C-118.713,40.656 -118.47,41.282 -118.219,41.926C-116.639,44.562 -115.687,44.873 -112.77,45.719C-98.354,49.302 -82.575,48.31 -67.833,48.381C-65.336,48.398 -62.839,48.425 -60.341,48.463C-45.733,48.684 -32.622,48.542 -18.957,43.031C-18.031,42.659 -17.105,42.286 -16.151,41.902C-13.958,40.952 -11.834,39.933 -9.707,38.844C-8.327,38.162 -6.947,37.481 -5.566,36.801C-4.947,36.492 -4.328,36.184 -3.689,35.866C-1.488,34.805 0.758,33.895 3.043,33.031C2.991,31.784 2.991,31.784 2.938,30.512C2.91,29.425 2.883,28.338 2.855,27.219C2.821,26.14 2.786,25.061 2.75,23.949C3.043,21.031 3.043,21.031 4.355,19.156C6.877,17.475 9.095,17.835 12.043,18.031L12.043,12.031L14.043,12.031L14.043,10.031C13.343,9.763 12.643,9.495 11.922,9.219C8.861,7.956 5.935,6.525 2.98,5.031C1.958,4.516 0.936,4 -0.117,3.469C-1.054,2.994 -1.991,2.52 -2.957,2.031C-4.29,1.364 -5.623,0.697 -6.957,0.031C-3.729,-1.045 -3.098,-0.95 0,0Z" style="fill:rgb(226,115,1);fill-rule:nonzero;"/>
    </g>
    <g transform="matrix(0.996804,0,0,1.02175,39.9611,209.499)">
        <path d="M0,0C5.967,0.519 11.924,1.094 17.878,1.745C39.176,3.987 60.261,4.405 81.663,4.264C85.138,4.245 88.612,4.241 92.086,4.237C129.325,5.095 129.325,5.095 166,0C168.333,-0.039 170.667,-0.045 173,0L173,6C167.275,8.337 161.926,9.759 155.813,10.625C154.963,10.75 154.114,10.875 153.239,11.003C143.532,12.339 133.786,12.715 124,13C123.903,13.772 123.807,14.544 123.707,15.34C122.89,18.413 122.36,18.975 119.688,20.563C104.209,29.321 86.917,29.352 69.665,29.316C66.534,29.313 63.404,29.336 60.273,29.361C19.9,29.491 19.9,29.491 8.633,21.273C3.591,14.926 -0.866,8.442 0,0Z" style="fill:rgb(242,134,1);fill-rule:nonzero;"/>
    </g>
    <g transform="matrix(0.996804,0,0,1.02175,214.169,160.815)">
        <path d="M0,0C4.718,3.966 7.85,8.509 8.609,14.711C8.162,18.218 7.589,19.99 5.234,22.648C1.547,23.461 1.547,23.461 -1.766,23.648C-1.436,22.658 -1.106,21.668 -0.766,20.648C-3.182,19.356 -5.599,18.065 -8.016,16.773C-8.698,16.409 -9.379,16.044 -10.082,15.668C-13.291,13.955 -16.498,12.248 -19.766,10.648C-20.508,11.298 -20.508,11.298 -21.266,11.961C-26.708,15.635 -32.171,17.343 -38.766,16.648C-45.338,15.087 -51,12.097 -56.766,8.648C-57.262,9.119 -57.758,9.589 -58.27,10.074C-66.445,17.567 -71.912,19.228 -83.023,19.008C-88.888,18.445 -94.221,16.858 -98.723,12.949C-100.708,11.397 -100.708,11.397 -103.211,11.84C-105.753,12.644 -108.186,13.547 -110.641,14.586C-117.927,17.541 -124.823,19.943 -132.766,18.648C-135.008,17.492 -136.977,16.157 -139.039,14.707C-140.774,13.436 -140.774,13.436 -143.203,13.648C-144.049,13.978 -144.894,14.308 -145.766,14.648C-151.726,16.908 -157.321,18.698 -163.766,17.648C-164.426,16.988 -165.086,16.328 -165.766,15.648C-170.422,15.131 -172.964,15.965 -176.766,18.648C-176.106,19.968 -175.446,21.288 -174.766,22.648C-182.969,22.304 -182.969,22.304 -185.891,19.898C-187.076,16.85 -186.892,15.746 -185.766,12.648C-183.018,7.164 -180.384,3.476 -174.766,0.648C-171.024,0.131 -167.347,0.228 -163.578,0.336C-162.468,0.351 -161.358,0.367 -160.214,0.383C-153.69,0.493 -147.173,0.74 -140.654,1.016C-110.959,2.272 -81.268,1.972 -51.578,0.711C-50.55,0.667 -49.522,0.624 -48.463,0.579C-45.528,0.452 -42.594,0.32 -39.66,0.184C-38.805,0.145 -37.949,0.106 -37.068,0.067C-32.038,-0.179 -27.044,-0.584 -22.036,-1.118C-5.721,-2.796 -5.721,-2.796 0,0Z" style="fill:rgb(104,145,3);fill-rule:nonzero;"/>
    </g>
    <g transform="matrix(0.996804,0,0,1.02175,209.418,208.477)">
        <path d="M0,0L4,0C6.234,8.618 7.439,15.644 3.387,23.891C-1.112,30.734 -8.362,33.378 -15.883,35.216C-17.293,35.561 -18.712,35.877 -20.125,36.188C-24.165,36.951 -33.142,38.977 -33.73,38.965C-38.521,38.912 -43.223,39.068 -47.996,39.496C-54.965,40.05 -61.887,40.145 -68.875,40.133C-70.161,40.134 -71.447,40.135 -72.771,40.136C-75.477,40.137 -78.183,40.135 -80.889,40.13C-84.29,40.125 -87.69,40.128 -91.091,40.134C-105.085,40.154 -119.035,40.022 -133.008,39.214C-136.822,38.952 -136.822,38.952 -139.93,39.094C-142,39 -142,39 -144,37C-146.584,36.258 -149.134,35.6 -151.75,35C-166.163,31.621 -166.163,31.621 -169.313,27.063C-169.804,26.373 -170.295,25.683 -170.801,24.973C-173.819,20.008 -173.344,14.619 -173,9C-172,5.313 -172,5.313 -171,3C-169.851,5.261 -168.757,7.532 -167.703,9.84C-163.89,18.215 -163.89,18.215 -157,24C-140.924,29.243 -123.718,29.328 -106.999,29.261C-103.807,29.25 -100.616,29.261 -97.424,29.273C-83.957,29.284 -71.11,29.16 -58.438,24.063C-57.767,23.81 -57.096,23.558 -56.404,23.299C-52.893,21.938 -49.79,20.561 -47,18C-46.648,16.671 -46.312,15.338 -46,14C-43.012,13.004 -40.678,12.761 -37.547,12.57C-36.459,12.499 -35.371,12.427 -34.25,12.353C-32.518,12.24 -32.518,12.24 -30.75,12.125C-20.94,11.435 -11.549,10.367 -2,8C-1.214,7.805 -0.427,7.611 0.383,7.41C0.916,7.275 1.45,7.139 2,7C2.33,5.02 2.66,3.04 3,1C2.01,0.67 1.02,0.34 0,0Z" style="fill:rgb(189,73,1);fill-rule:nonzero;"/>
    </g>
    <g transform="matrix(0.996804,0,0,1.02175,173.533,182.934)">
        <path d="M0,0C4.791,0.458 9.414,0.529 14,-1C18.601,-2.534 23.191,-2.154 28,-2C26.704,1.768 25.242,4.128 22.41,6.918C21.708,7.615 21.006,8.311 20.283,9.029C19.55,9.742 18.818,10.454 18.063,11.188C17.334,11.911 16.605,12.635 15.854,13.381C8.281,20.843 8.281,20.843 3.887,21.383C-1.115,20.89 -4.744,19.124 -9.188,16.875C-10.026,16.468 -10.865,16.062 -11.729,15.643C-15.371,13.867 -18.971,12.051 -22.484,10.031C-31.787,4.814 -38.384,5.607 -48.475,8.416C-56.766,10.884 -64.641,14.297 -72.467,17.965C-78.087,20.512 -83.733,22.865 -90,22C-93.363,20.294 -95.942,18 -98.688,15.438C-99.395,14.816 -100.102,14.194 -100.83,13.553C-102.227,12.321 -103.613,11.078 -104.99,9.824C-107.938,7.149 -110.968,4.579 -114,2C-113,0 -113,0 -110,-1C-103.79,-1.626 -99.571,-0.678 -94,2C-87.265,3.852 -82.275,3.188 -75.75,1C-65.331,-2.311 -56.999,-1.116 -46.632,1.664C-38.997,3.601 -32.555,2.883 -25.25,-0.063C-16.524,-3.131 -8.68,-2.909 0,0Z" style="fill:rgb(241,61,0);fill-rule:nonzero;"/>
    </g>
    <g transform="matrix(0.996804,0,0,1.02175,39.9611,209.499)">
        <path d="M0,0C5.967,0.519 11.924,1.094 17.878,1.745C39.176,3.987 60.261,4.405 81.663,4.264C85.138,4.245 88.612,4.241 92.086,4.237C129.325,5.095 129.325,5.095 166,0C168.333,-0.039 170.667,-0.045 173,0L173,6C167.211,8.371 161.809,9.754 155.625,10.625C154.858,10.746 154.091,10.867 153.301,10.992C138.284,13.196 122.963,13.169 107.816,13.203C106.502,13.207 106.502,13.207 105.16,13.212C100.519,13.227 95.878,13.236 91.237,13.24C87.47,13.245 83.703,13.258 79.937,13.281C25.209,13.605 25.209,13.605 0,6L0,0Z" style="fill:rgb(254,240,176);fill-rule:nonzero;"/>
    </g>
    <g transform="matrix(0.996804,0,0,1.02175,46.9387,151.259)">
        <path d="M0,0C0.97,0.089 0.97,0.089 1.959,0.181C24.775,2.201 47.497,2.276 70.386,2.196C74.295,2.185 78.204,2.185 82.112,2.186C117.838,2.326 117.838,2.326 153.463,-0.048C156.872,-0.312 158.6,-0.287 161.422,1.738C162.965,3.95 163.442,5.415 164,8C109.396,13.103 52.566,15.409 -2,9C-1.34,6.03 -0.68,3.06 0,0Z" style="fill:rgb(244,219,117);fill-rule:nonzero;"/>
    </g>
    <g transform="matrix(0.996804,0,0,1.02175,157.447,96.3028)">
        <path d="M0,0C0.691,0.217 1.382,0.435 2.094,0.658C2.871,0.899 3.647,1.14 4.446,1.388C5.272,1.664 6.099,1.94 6.95,2.225C7.8,2.503 8.65,2.782 9.526,3.069C26.207,8.714 41.079,17.104 50.262,32.698C53.866,40.303 53.413,46.187 50.829,53.881C50.601,54.51 50.373,55.139 50.137,55.787C49.477,55.457 48.817,55.127 48.137,54.787C45.582,54.854 43.061,54.985 40.512,55.162C17.054,56.632 -6.318,56.919 -29.814,56.856C-34.119,56.846 -38.425,56.841 -42.73,56.836C-51.107,56.826 -59.485,56.809 -67.863,56.787L-67.863,55.787C-66.971,55.775 -66.971,55.775 -66.06,55.763C-59.88,55.677 -53.7,55.577 -47.52,55.47C-45.212,55.432 -42.904,55.397 -40.597,55.365C-37.283,55.32 -33.969,55.262 -30.656,55.201C-29.104,55.184 -29.104,55.184 -27.521,55.166C-26.56,55.147 -25.599,55.127 -24.609,55.106C-23.763,55.093 -22.917,55.08 -22.046,55.066C-19.572,54.915 -19.572,54.915 -16.863,52.787C-13.444,50.725 -10.474,50.393 -6.515,50.076C-5.269,49.966 -4.023,49.855 -2.74,49.74C-0.141,49.524 2.458,49.313 5.057,49.108C12.761,48.411 20.22,47.488 27.137,43.787C29.163,40.749 29.655,39.323 30.137,35.787C30.282,34.756 30.426,33.725 30.575,32.662C29.801,25.805 26.439,19.943 21.423,15.244C17.905,12.474 14.107,10.27 10.2,8.1C9.523,7.71 8.845,7.32 8.147,6.918C3.88,4.525 -0.107,2.947 -4.863,1.787C-1.863,-0.213 -1.863,-0.213 0,0Z" style="fill:rgb(184,66,1);fill-rule:nonzero;"/>
    </g>
    <g transform="matrix(0.996804,0,0,1.02175,214.169,160.815)">
        <path d="M0,0C4.718,3.966 7.85,8.509 8.609,14.711C8.162,18.218 7.589,19.99 5.234,22.648C1.547,23.461 1.547,23.461 -1.766,23.648C-1.436,22.658 -1.106,21.668 -0.766,20.648C-3.182,19.356 -5.599,18.065 -8.016,16.773C-8.698,16.409 -9.379,16.044 -10.082,15.668C-13.291,13.955 -16.498,12.248 -19.766,10.648C-20.261,11.082 -20.756,11.515 -21.266,11.961C-26.708,15.635 -32.171,17.343 -38.766,16.648C-44.903,15.214 -50.917,12.753 -55.766,8.648C-56.988,6.488 -56.988,6.488 -57.766,4.648C-58.096,4.978 -58.426,5.308 -58.766,5.648C-60.765,5.689 -62.766,5.691 -64.766,5.648L-64.766,4.648C-87.536,4.318 -110.306,3.988 -133.766,3.648L-133.766,2.648C-132.873,2.636 -132.873,2.636 -131.963,2.624C-104.928,2.251 -77.905,1.792 -50.891,0.648C-49.381,0.586 -49.381,0.586 -47.842,0.522C-44.985,0.402 -42.129,0.276 -39.273,0.148C-38.453,0.113 -37.632,0.078 -36.787,0.041C-31.854,-0.191 -26.96,-0.594 -22.05,-1.117C-5.719,-2.795 -5.719,-2.795 0,0Z" style="fill:rgb(90,128,5);fill-rule:nonzero;"/>
    </g>
    <g transform="matrix(0.996804,0,0,1.02175,157.584,168.629)">
        <path d="M0,0C1.321,0.741 1.321,0.741 2.668,1.496C3.841,2.144 5.014,2.791 6.188,3.438C7.336,4.076 8.485,4.714 9.668,5.371C15.192,8.072 20.987,9.039 27.051,7.469C31.353,5.978 34.589,4.091 38,1L38,3C38.71,3.338 39.421,3.675 40.152,4.023C41.071,4.469 41.991,4.915 42.938,5.375C43.854,5.816 44.771,6.257 45.715,6.711C48,8 48,8 49,10C47.35,10.33 45.7,10.66 44,11L44,9C43.34,9.66 42.68,10.32 42,11C32.877,14.16 22.536,17.216 13.063,14.004C4.983,11.356 -2.765,12.628 -10.563,15.563C-19.704,18.961 -26.813,17.898 -36.063,15.438C-46.024,12.824 -53.365,13.887 -63.066,17.098C-70.54,19.396 -78.119,17.44 -85,14C-87.207,13.929 -89.417,13.916 -91.625,13.938C-93.408,13.951 -93.408,13.951 -95.227,13.965C-96.599,13.982 -96.599,13.982 -98,14C-94.812,11.875 -92.735,11.498 -89,11L-89,9C-90.98,9.33 -92.96,9.66 -95,10C-93.337,6.674 -90.37,6.2 -87,5C-83.906,5.097 -82.512,6.322 -79.875,8.063C-75.249,10.717 -71.212,10.818 -66,10C-57.138,7.561 -57.138,7.561 -48.805,3.773C-46.405,2.745 -45.422,3.084 -43,4C-41.295,4.797 -39.608,5.633 -37.938,6.5C-29.869,10.674 -20.775,11.791 -11.965,9.059C-7.098,6.717 -3.746,3.91 0,0Z" style="fill:rgb(39,17,15);fill-rule:nonzero;"/>
    </g>
    <g transform="matrix(0.996804,0,0,1.02175,170.573,181.924)">
        <path d="M0,0C5.457,1.817 11.513,1.807 16.969,-0.012C21.57,-1.546 26.16,-1.166 30.969,-1.012C29.673,2.756 28.211,5.116 25.379,7.906C24.677,8.603 23.975,9.3 23.252,10.018C22.153,11.086 22.153,11.086 21.031,12.176C20.302,12.9 19.573,13.623 18.822,14.369C11.247,21.833 11.247,21.833 6.852,22.367C1.878,21.882 -1.735,20.157 -6.156,17.926C-6.984,17.52 -7.812,17.114 -8.666,16.695C-11.13,15.477 -13.583,14.238 -16.031,12.988C-16.734,12.632 -17.436,12.275 -18.16,11.907C-28.79,6.471 -28.79,6.471 -30.031,3.988C-20.275,-0.107 -10.551,-3.521 0,0Z" style="fill:rgb(251,183,0);fill-rule:nonzero;"/>
    </g>
    <g transform="matrix(0.996804,0,0,1.02175,40.9579,137.977)">
        <path d="M0,0C0.24,0.625 0.48,1.251 0.728,1.895C2.758,5.255 5.447,5.441 9.099,6.401C14.151,7.444 19.168,7.83 24.313,8.125C25.566,8.203 26.82,8.281 28.112,8.361C53.352,9.794 78.726,9.706 104,10C101.08,13.212 98.657,14.826 94.286,15.285C93.248,15.302 92.21,15.318 91.14,15.335C89.366,15.369 89.366,15.369 87.556,15.405C86.277,15.419 84.998,15.434 83.68,15.449C82.338,15.471 80.997,15.492 79.656,15.515C76.837,15.561 74.017,15.599 71.198,15.633C67.639,15.676 64.08,15.733 60.521,15.794C21.26,16.462 21.26,16.462 6,13C6.021,14.134 6.041,15.269 6.063,16.438C6,20 6,20 5,21C7.97,21.33 10.94,21.66 14,22L14,23L1,23L1,20L3,20C3.495,15.545 3.495,15.545 4,11L2,11C1.34,10.34 0.68,9.68 0,9C-0.99,8.34 -1.68,6.34 -1,6C-0.342,2.971 -0.342,2.971 0,0Z" style="fill:rgb(217,106,6);fill-rule:nonzero;"/>
    </g>
    <g transform="matrix(0.996804,0,0,1.02175,39.9611,209.499)">
        <path d="M0,0C5.736,0.499 11.462,1.044 17.184,1.684C46.022,4.753 75.029,5.214 104,6L104,7C86.84,7.33 69.68,7.66 52,8L52,10C52.66,10.66 53.32,11.32 54,12C35.322,12.491 18.032,11.075 0,6L0,0Z" style="fill:rgb(253,243,184);fill-rule:nonzero;"/>
    </g>
    <g transform="matrix(0.996804,0,0,1.02175,200.447,159.433)">
        <path d="M0,0C4.746,-0.55 9.127,-1.049 13.406,1.348C18.259,5.467 21.582,9.586 22.375,16.063C21.927,19.57 21.355,21.341 19,24C15.313,24.813 15.313,24.813 12,25C12.33,24.01 12.66,23.02 13,22C10.584,20.708 8.167,19.416 5.75,18.125C5.068,17.76 4.386,17.395 3.684,17.02C0.475,15.306 -2.733,13.6 -6,12C-5.67,9.36 -5.34,6.72 -5,4C-3.35,3.34 -1.7,2.68 0,2L0,0Z" style="fill:rgb(77,92,8);fill-rule:nonzero;"/>
    </g>
    <g transform="matrix(0.996804,0,0,1.02175,212.408,209.499)">
        <path d="M0,0L0,6C-5.768,8.349 -11.221,9.833 -17.375,10.75C-18.232,10.88 -19.089,11.01 -19.972,11.144C-28.739,12.33 -37.227,11.879 -46,11L-46,6C-47.32,5.34 -48.64,4.68 -50,4C-48.693,3.951 -47.386,3.902 -46.039,3.852C-36.975,3.483 -27.955,3.013 -18.938,2C-18.195,1.917 -17.453,1.834 -16.688,1.749C-1.658,-0.032 -1.658,-0.032 0,0Z" style="fill:rgb(250,214,104);fill-rule:nonzero;"/>
    </g>
    <g transform="matrix(0.996804,0,0,1.02175,75.8461,148.194)">
        <path d="M0,0L69,0C65.956,3.044 64.063,4.777 59.773,5.241C58.964,5.236 58.156,5.232 57.323,5.227L54.533,5.227C53.548,5.216 52.562,5.206 51.547,5.195C50.024,5.191 50.024,5.191 48.47,5.187C45.23,5.176 41.99,5.15 38.75,5.125C36.552,5.115 34.354,5.106 32.156,5.098C26.771,5.076 21.385,5.042 16,5L16,3L6,3L6,2C3.03,1.505 3.03,1.505 0,1L0,0Z" style="fill:rgb(206,102,0);fill-rule:nonzero;"/>
    </g>
    <g transform="matrix(0.996804,0,0,1.02175,115.718,214.608)">
        <path d="M0,0L52,0C51.67,1.98 51.34,3.96 51,6L63,6L63,7C52.605,7.495 52.605,7.495 42,8L42,6C41.01,5.67 40.02,5.34 39,5C39.33,4.67 39.66,4.34 40,4C21.52,3.67 3.04,3.34 -16,3C-15.34,4.32 -14.68,5.64 -14,7C-17.867,8.266 -21.732,8.112 -25.75,8.063C-26.447,8.058 -27.145,8.053 -27.863,8.049C-29.576,8.037 -31.288,8.019 -33,8C-32.67,7.01 -32.34,6.02 -32,5L-24,5L-24,3C-24.66,2.67 -25.32,2.34 -26,2C-17.42,1.67 -8.84,1.34 0,1L0,0Z" style="fill:rgb(252,236,158);fill-rule:nonzero;"/>
    </g>
    <g transform="matrix(0.996804,0,0,1.02175,151.603,148.194)">
        <path d="M0,0L0,1C-1.98,1.33 -3.96,1.66 -6,2L52,2L52,3C26.88,6.805 1.385,6.137 -23.952,6.069C-28.257,6.058 -32.562,6.054 -36.867,6.049C-45.245,6.038 -53.622,6.021 -62,6L-62,5C-61.108,4.988 -61.108,4.988 -60.198,4.975C-54.017,4.89 -47.837,4.79 -41.657,4.683C-39.349,4.644 -37.042,4.609 -34.734,4.578C-31.42,4.533 -28.107,4.475 -24.793,4.414C-23.241,4.397 -23.241,4.397 -21.658,4.379C-20.217,4.349 -20.217,4.349 -18.747,4.319C-17.901,4.306 -17.055,4.292 -16.183,4.278C-13.709,4.127 -13.709,4.127 -11,2C-7.368,-0.335 -4.246,-0.163 0,0Z" style="fill:rgb(183,59,3);fill-rule:nonzero;"/>
    </g>
    <g transform="matrix(0.996804,0,0,1.02175,140.638,193.151)">
        <path d="M0,0L0,2L2,2C2.495,4.97 2.495,4.97 3,8L-33,8C-23.965,1.977 -10.714,-0.63 0,0Z" style="fill:rgb(111,38,10);fill-rule:nonzero;"/>
    </g>
    <g transform="matrix(0.996804,0,0,1.02175,147.616,190.086)">
        <path d="M0,0L0,3C-1.073,2.773 -2.145,2.546 -3.25,2.313C-8.081,1.711 -12.062,2.818 -16.707,4.102C-20.223,5.061 -23.749,5.86 -27.313,6.625C-28.977,6.985 -28.977,6.985 -30.676,7.352C-34.106,8.021 -37.537,8.535 -41,9C-33.31,-0.09 -10.701,-5.036 0,0Z" style="fill:rgb(39,17,13);fill-rule:nonzero;"/>
    </g>
    <g transform="matrix(0.996804,0,0,1.02175,154.344,162.307)">
        <path d="M0,0C1.131,-0.013 2.261,-0.026 3.427,-0.039C4.436,-0.04 5.445,-0.042 6.484,-0.043C7.322,-0.047 8.16,-0.051 9.022,-0.055C11.487,0.213 13.118,0.953 15.25,2.188C14.323,2.248 13.396,2.309 12.441,2.371C11.244,2.455 10.046,2.539 8.813,2.625C7.618,2.706 6.423,2.787 5.191,2.871C2.364,2.864 2.364,2.864 1.25,4.188C-0.75,4.228 -2.75,4.23 -4.75,4.188L-4.75,3.188C-27.52,2.858 -50.29,2.528 -73.75,2.188L-73.75,1.188C-18.375,0.099 -18.375,0.099 0,0Z" style="fill:rgb(61,111,6);fill-rule:nonzero;"/>
    </g>
    <g transform="matrix(0.996804,0,0,1.02175,39.9611,209.499)">
        <path d="M0,0C0.653,0.06 1.305,0.12 1.978,0.181C9.046,0.827 16.116,1.45 23.188,2.063C24.235,2.153 25.282,2.244 26.361,2.338C28.908,2.559 31.454,2.779 34,3C34.495,4.485 34.495,4.485 35,6C31.896,6.029 28.792,6.047 25.688,6.063C24.366,6.075 24.366,6.075 23.018,6.088C22.17,6.091 21.322,6.094 20.449,6.098C19.279,6.106 19.279,6.106 18.085,6.114C16,6 16,6 13,5L13,7C11.541,6.859 10.083,6.712 8.625,6.563C7.407,6.441 7.407,6.441 6.164,6.316C4,6 4,6 2,5L2,3L0,3L0,0Z" style="fill:rgb(252,232,168);fill-rule:nonzero;"/>
    </g>
    <g transform="matrix(0.996804,0,0,1.02175,47.5181,153.411)">
        <path d="M0,0C0.653,0.06 1.305,0.12 1.978,0.181C9.046,0.827 16.116,1.45 23.188,2.063C24.235,2.153 25.282,2.244 26.361,2.338C28.908,2.559 31.454,2.779 34,3C34.495,4.485 34.495,4.485 35,6C31.896,6.029 28.792,6.047 25.688,6.063C24.366,6.075 24.366,6.075 23.018,6.088C22.17,6.091 21.322,6.094 20.449,6.098C19.279,6.106 19.279,6.106 18.085,6.114C16,6 16,6 13,5L13,7C11.541,6.859 10.083,6.712 8.625,6.563C7.407,6.441 7.407,6.441 6.164,6.316C4,6 4,6 2,5L2,3L0,3L0,0Z" style="fill:rgb(252,232,168);fill-rule:nonzero;"/>
    </g>
    <g transform="matrix(0.996804,0,0,1.02175,139.891,104.196)">
        <path d="M0,0C4.077,1.575 6.543,4.318 8.75,8.063C8.625,11 8.625,11 7.75,13.063C4.118,13.4 2.162,13.291 -1.063,11.5C-3.876,8.365 -4.173,6.226 -4.25,2.063C-2.25,0.063 -2.25,0.063 0,0Z" style="fill:rgb(254,251,245);fill-rule:nonzero;"/>
    </g>
    <g transform="matrix(0.996804,0,0,1.02175,50.303,161.222)">
        <path d="M0,0C1.39,0.027 1.39,0.027 2.809,0.055C5.082,0.102 7.353,0.167 9.625,0.25L9.625,1.25C8.467,1.276 7.31,1.302 6.117,1.328C4.578,1.384 3.039,1.442 1.5,1.5C0.359,1.521 0.359,1.521 -0.805,1.543C-6.077,1.77 -9.197,2.768 -13.375,6.25C-15.061,8.09 -15.061,8.09 -16.25,10C-17.302,11.609 -17.302,11.609 -18.375,13.25C-17.385,13.58 -16.395,13.91 -15.375,14.25L-15.375,16.25C-14.385,16.91 -13.395,17.57 -12.375,18.25C-11.188,20.375 -11.188,20.375 -10.375,22.25C-18.578,21.906 -18.578,21.906 -21.5,19.5C-22.685,16.452 -22.501,15.348 -21.375,12.25C-16.425,2.37 -10.852,-0.403 0,0Z" style="fill:rgb(99,82,12);fill-rule:nonzero;"/>
    </g>
    <g transform="matrix(0.996804,0,0,1.02175,121.699,118.564)">
        <path d="M0,0C1,1 1,1 1.313,3.75C0.921,7.824 0.079,9.316 -3,12C-6.75,12.313 -6.75,12.313 -10,12C-10.813,8.813 -10.813,8.813 -11,5C-7.835,0.493 -5.464,-0.745 0,0Z" style="fill:rgb(254,250,245);fill-rule:nonzero;"/>
    </g>
    <g transform="matrix(0.996804,0,0,1.02175,38.9643,211.543)">
        <path d="M0,0C7.315,14.563 7.315,14.563 5,22.375C4.67,23.241 4.34,24.108 4,25C1.107,23.433 -0.214,22.684 -2,20C-3.012,13.009 -2.501,6.604 0,0Z" style="fill:rgb(198,81,5);fill-rule:nonzero;"/>
    </g>
    <g transform="matrix(0.996804,0,0,1.02175,79.8333,115.498)">
        <path d="M0,0C0.813,2.125 0.813,2.125 1,5C-1.538,8.999 -2.683,10.62 -7.25,11.938C-8.158,11.958 -9.065,11.979 -10,12C-11,11 -11,11 -11.313,8.25C-10.931,4.287 -9.737,2.818 -7,0C-4.333,-1.333 -2.833,-0.671 0,0Z" style="fill:rgb(254,251,245);fill-rule:nonzero;"/>
    </g>
    <g transform="matrix(0.996804,0,0,1.02175,217.392,165.564)">
        <path d="M0,0C2.364,1.754 3.781,3.229 4.594,6.094C5.138,9.806 5.196,12.411 4,16C1.216,18.784 -1.161,18.783 -5,19C-4.67,18.01 -4.34,17.02 -4,16C-5.32,15.01 -6.64,14.02 -8,13L-6,13L-6,9L1,9C0.67,6.03 0.34,3.06 0,0Z" style="fill:rgb(81,71,12);fill-rule:nonzero;"/>
    </g>
    <g transform="matrix(0.996804,0,0,1.02175,164.056,149.889)">
        <path d="M0,0C1.321,0 1.321,0 2.669,0.001C4.081,0.024 4.081,0.024 5.522,0.048C6.493,0.052 7.464,0.056 8.465,0.06C11.562,0.077 14.659,0.115 17.757,0.153C19.858,0.168 21.96,0.182 24.062,0.194C29.21,0.227 34.358,0.279 39.507,0.341L39.507,1.341C23.675,4.257 7.533,3.53 -8.493,3.341C-5.582,0.837 -3.838,-0.033 0,0Z" style="fill:rgb(156,38,3);fill-rule:nonzero;"/>
    </g>
    <g transform="matrix(0.996804,0,0,1.02175,105.75,103.237)">
        <path d="M0,0C0.813,3.188 0.813,3.188 1,7C-1.125,10 -1.125,10 -4,12C-8.19,11.81 -8.19,11.81 -10,10C-10.396,6.437 -10.427,4.624 -8.375,1.625C-5.396,-0.413 -3.537,-0.322 0,0Z" style="fill:rgb(254,250,244);fill-rule:nonzero;"/>
    </g>
    <g transform="matrix(0.996804,0,0,1.02175,157.558,96.3671)">
        <path d="M0,0C0.736,0.243 1.471,0.485 2.229,0.736C3.453,1.131 3.453,1.131 4.702,1.534C5.976,1.969 5.976,1.969 7.276,2.411C8.11,2.681 8.944,2.951 9.804,3.23C14.664,4.828 19.357,6.635 24.026,8.724L24.026,11.724C23.366,12.384 22.706,13.044 22.026,13.724C16.65,11.779 11.693,9.641 6.839,6.599C2.92,4.147 -0.467,2.704 -4.974,1.724C-1.974,-0.276 -1.974,-0.276 0,0Z" style="fill:rgb(202,77,4);fill-rule:nonzero;"/>
    </g>
    <g transform="matrix(0.996804,0,0,1.02175,166.555,116.52)">
        <path d="M0,0C3,0.125 3,0.125 6,1C8.215,3.819 8.369,6.493 8,10C7.34,10.66 6.68,11.32 6,12C2.895,11.841 1.44,11.425 -0.813,9.25C-2.223,6.578 -2.392,4.982 -2,2C-1.34,1.34 -0.68,0.68 0,0Z" style="fill:rgb(251,241,229);fill-rule:nonzero;"/>
    </g>
    <g transform="matrix(0.996804,0,0,1.02175,116.715,173.738)">
        <path d="M0,0L0,2C1.323,3.014 2.657,4.013 4,5C4.99,6.485 4.99,6.485 6,8C2.625,8.625 2.625,8.625 -1,9C-1.66,8.34 -2.32,7.68 -3,7C-5.669,6.757 -5.669,6.757 -8.625,6.875C-9.628,6.893 -10.631,6.911 -11.664,6.93C-12.82,6.964 -12.82,6.964 -14,7C-13.67,6.01 -13.34,5.02 -13,4C-10.938,3.313 -10.938,3.313 -9,3L-9,1C-5.649,-1.11 -3.779,-1.05 0,0Z" style="fill:rgb(50,23,16);fill-rule:nonzero;"/>
    </g>
    <g transform="matrix(0.996804,0,0,1.02175,112.587,82.7023)">
        <path d="M0,0C1.115,0.003 2.23,0.006 3.379,0.01C4.538,0.018 5.697,0.027 6.891,0.035C8.065,0.04 9.239,0.044 10.449,0.049C13.346,0.061 16.243,0.077 19.141,0.098L19.141,2.098L30.141,2.098L30.141,3.098L-10.859,3.098C-9.859,1.098 -9.859,1.098 -8.163,0.479C-5.406,0.023 -2.795,-0.014 0,0Z" style="fill:rgb(249,63,14);fill-rule:nonzero;"/>
    </g>
    <g transform="matrix(0.996804,0,0,1.02175,212.408,209.499)">
        <path d="M0,0L0,6C-5.36,8.257 -9.198,9.363 -15,9C-11.865,7.142 -9.625,6.799 -6,7L-6,5L-9,5L-9,3L-16,3L-16,2C-10.545,0.615 -5.633,-0.24 0,0Z" style="fill:rgb(248,221,113);fill-rule:nonzero;"/>
    </g>
    <g transform="matrix(0.996804,0,0,1.02175,66.8748,106.303)">
        <path d="M0,0C0.66,0.33 1.32,0.66 2,1C1,3 1,3 -2.125,4.125C-6.421,5.814 -8.654,8.766 -11.422,12.355C-11.943,12.898 -12.463,13.441 -13,14L-16,14C-16.103,14.578 -16.206,15.155 -16.313,15.75C-17.098,18.32 -18.305,19.937 -20,22C-20.99,21.67 -21.98,21.34 -23,21C-23,19 -23,19 -20.938,16.813C-19.958,15.875 -18.979,14.937 -18,14C-16.832,12.814 -15.666,11.626 -14.5,10.438C-10.074,6.031 -5.817,2.456 0,0Z" style="fill:rgb(253,154,28);fill-rule:nonzero;"/>
    </g>
    <g transform="matrix(0.996804,0,0,1.02175,226.363,183.955)">
        <path d="M0,0C0.33,0.99 0.66,1.98 1,3C0.01,3.33 -0.98,3.66 -2,4C-1.67,4.99 -1.34,5.98 -1,7C-0.499,15.329 -1.322,23.704 -2,32L-3,32C-3.33,34.64 -3.66,37.28 -4,40C-3.34,40.33 -2.68,40.66 -2,41C-3.485,41.495 -3.485,41.495 -5,42C-6.178,34.126 -5.799,27.763 -3.77,20.07C-2.761,16.046 -2.35,12.128 -2,8C-2.66,7.67 -3.32,7.34 -4,7L-4,3C-3.01,2.67 -2.02,2.34 -1,2C-0.67,1.34 -0.34,0.68 0,0Z" style="fill:rgb(219,48,13);fill-rule:nonzero;"/>
    </g>
    <g transform="matrix(0.996804,0,0,1.02175,77.8397,179.868)">
        <path d="M0,0C2.627,0.087 5.25,0.194 7.875,0.313C8.621,0.335 9.368,0.358 10.137,0.381C12.1,0.478 14.053,0.73 16,1C16.66,1.99 17.32,2.98 18,4C14.69,5.655 11.009,5.101 7.375,5.063C6.573,5.058 5.771,5.053 4.945,5.049C2.964,5.037 0.982,5.019 -1,5C-0.67,3.35 -0.34,1.7 0,0Z" style="fill:rgb(49,23,15);fill-rule:nonzero;"/>
    </g>
    <g transform="matrix(0.996804,0,0,1.02175,209.418,208.477)">
        <path d="M0,0L4,0C7.461,13.348 7.461,13.348 5,19.5C4.67,19.995 4.34,20.49 4,21C3.34,20.67 2.68,20.34 2,20C2,6.5 2,6.5 3,1C2.01,0.67 1.02,0.34 0,0Z" style="fill:rgb(180,73,23);fill-rule:nonzero;"/>
    </g>
    <g transform="matrix(0.996804,0,0,1.02175,83.8205,211.543)">
        <path d="M0,0L33,0L33,1C31.298,1.217 31.298,1.217 29.563,1.438C26.192,1.612 26.192,1.612 25,3C23.146,3.087 21.289,3.107 19.434,3.098C18.309,3.094 17.184,3.091 16.025,3.088C14.841,3.08 13.657,3.071 12.438,3.063C11.25,3.058 10.062,3.053 8.838,3.049C5.892,3.037 2.946,3.021 0,3L0,0Z" style="fill:rgb(65,39,22);fill-rule:nonzero;"/>
    </g>
    <g transform="matrix(0.996804,0,0,1.02175,123.693,196.216)">
        <path d="M0,0L0,2C-0.99,2.33 -1.98,2.66 -3,3C3.93,3.33 10.86,3.66 18,4L18,5L-16,5C-13.397,3.265 -11.477,2.348 -8.563,1.375C-7.801,1.115 -7.039,0.854 -6.254,0.586C-4,0 -4,0 0,0Z" style="fill:rgb(128,42,8);fill-rule:nonzero;"/>
    </g>
    <g transform="matrix(0.996804,0,0,1.02175,190.479,211.543)">
        <path d="M0,0C4.29,0.33 8.58,0.66 13,1L13,3L16,3L16,5C8.571,7.143 8.571,7.143 5,8C5.33,6.68 5.66,5.36 6,4C4.02,3.01 2.04,2.02 0,1L0,0Z" style="fill:rgb(245,199,92);fill-rule:nonzero;"/>
    </g>
    <g transform="matrix(0.996804,0,0,1.02175,186.491,175.781)">
        <path d="M0,0C1.32,0.33 2.64,0.66 4,1C3.67,1.66 3.34,2.32 3,3L13,3L13,4C10.649,4.678 8.295,5.342 5.938,6C5.281,6.191 4.624,6.382 3.947,6.578C-0.467,7.796 -4.379,8.192 -9,8L-9,6L-2,6C-1.34,4.02 -0.68,2.04 0,0Z" style="fill:rgb(27,11,15);fill-rule:nonzero;"/>
    </g>
    <g transform="matrix(0.996804,0,0,1.02175,55.91,211.543)">
        <path d="M0,0C5.94,0.33 11.88,0.66 18,1C18.33,1.99 18.66,2.98 19,4L0,4L0,0Z" style="fill:rgb(243,228,162);fill-rule:nonzero;"/>
    </g>
    <g transform="matrix(0.996804,0,0,1.02175,67.8716,48.063)">
        <path d="M0,0C-0.33,2.64 -0.66,5.28 -1,8L-3,8L-3,4C-3.866,4.722 -4.733,5.444 -5.625,6.188C-6.169,6.639 -6.713,7.09 -7.273,7.555C-8.412,8.508 -9.543,9.471 -10.664,10.445C-14.788,14 -14.788,14 -17,14C-15.453,9.643 -12.069,7.413 -8.5,4.75C-7.906,4.291 -7.311,3.832 -6.699,3.359C-2.27,0 -2.27,0 0,0Z" style="fill:rgb(248,66,9);fill-rule:nonzero;"/>
    </g>
    <g transform="matrix(0.996804,0,0,1.02175,207.798,153.048)">
        <path d="M0,0C1.573,2.178 2.249,3.616 2.625,6.25L-2.375,6.25L-2.375,0.25C-3.004,0.334 -3.633,0.418 -4.281,0.504C-9.906,1.173 -14.787,1.181 -20.375,0.25L-20.375,-0.75C-3.357,-2.473 -3.357,-2.473 0,0Z" style="fill:rgb(250,214,104);fill-rule:nonzero;"/>
    </g>
    <g transform="matrix(0.996804,0,0,1.02175,50.303,161.222)">
        <path d="M0,0C1.39,0.027 1.39,0.027 2.809,0.055C5.082,0.102 7.353,0.167 9.625,0.25L9.625,1.25C8.467,1.276 7.31,1.302 6.117,1.328C4.578,1.384 3.039,1.442 1.5,1.5C0.359,1.521 0.359,1.521 -0.805,1.543C-7.1,1.814 -10.853,3.728 -15.375,8.25L-18.375,8.25C-17.171,4.878 -15.31,3.009 -12.314,1.079C-8.391,-0.599 -4.189,-0.155 0,0Z" style="fill:rgb(94,100,7);fill-rule:nonzero;"/>
    </g>
    <g transform="matrix(0.996804,0,0,1.02175,115.718,11.2801)">
        <path d="M0,0C1.32,0.33 2.64,0.66 4,1C0.461,4.792 0.461,4.792 -1.938,5.875C-4.308,7.003 -4.308,7.003 -6.438,9.938C-8.845,12.815 -10.617,14.446 -14,16C-14.66,15.67 -15.32,15.34 -16,15C-14.377,13.291 -12.707,11.626 -11,10L-9,10L-9,8C-7.285,6.563 -7.285,6.563 -5.063,5C-2.014,2.952 -2.014,2.952 0,0Z" style="fill:rgb(248,76,8);fill-rule:nonzero;"/>
    </g>
    <g transform="matrix(0.996804,0,0,1.02175,201.443,219.717)">
        <path d="M0,0L0,1L-5,1C-5.33,1.99 -5.66,2.98 -6,4C-11.94,3.67 -17.88,3.34 -24,3L-24,2C-15.976,0.816 -8.135,-0.285 0,0Z" style="fill:rgb(165,49,3);fill-rule:nonzero;"/>
    </g>
    <g transform="matrix(0.996804,0,0,1.02175,3.07937,143.086)">
        <path d="M0,0C0.66,0.33 1.32,0.66 2,1C3.143,5.641 3.563,9.72 1.625,14.125C1.089,14.744 0.553,15.363 0,16L-1,16C-1.027,14.083 -1.046,12.167 -1.063,10.25C-1.074,9.183 -1.086,8.115 -1.098,7.016C-1.015,4.466 -0.746,2.421 0,0Z" style="fill:rgb(248,25,2);fill-rule:nonzero;"/>
    </g>
    <g transform="matrix(0.996804,0,0,1.02175,43.9483,183.955)">
        <path d="M0,0C1.65,0.33 3.3,0.66 5,1C2.25,6.875 2.25,6.875 0,8C-0.731,10.314 -1.401,12.648 -2,15C-2.66,13.68 -3.32,12.36 -4,11C-3.67,10.67 -3.34,10.34 -3,10C-2.856,8.886 -2.711,7.773 -2.563,6.625C-2,3 -2,3 0,0Z" style="fill:rgb(81,24,7);fill-rule:nonzero;"/>
    </g>
    <g transform="matrix(0.996804,0,0,1.02175,131.667,82.8024)">
        <path d="M0,0L22,0C21.67,0.99 21.34,1.98 21,3C13.934,3.138 7.026,2.748 0,2L0,0Z" style="fill:rgb(246,26,0);fill-rule:nonzero;"/>
    </g>
    <g transform="matrix(0.996804,0,0,1.02175,142.632,196.216)">
        <path d="M0,0L3,0C2.67,1.32 2.34,2.64 2,4C2.66,4.33 3.32,4.66 4,5C3,6 3,6 0.133,6.114C-1.119,6.108 -2.371,6.103 -3.66,6.098C-4.657,6.096 -4.657,6.096 -5.674,6.093C-7.803,6.088 -9.933,6.075 -12.063,6.063C-13.503,6.057 -14.944,6.053 -16.385,6.049C-19.923,6.038 -23.462,6.021 -27,6L-27,5C-18.09,4.67 -9.18,4.34 0,4L0,0Z" style="fill:rgb(73,29,12);fill-rule:nonzero;"/>
    </g>
    <g transform="matrix(0.996804,0,0,1.02175,44.9451,149.216)">
        <path d="M0,0C2,2 2,2 2.188,5.563C2,9 2,9 1,10C3.97,10.33 6.94,10.66 10,11L10,12L-3,12L-3,9L-1,9C-0.67,6.03 -0.34,3.06 0,0Z" style="fill:rgb(203,145,81);fill-rule:nonzero;"/>
    </g>
    <g transform="matrix(0.996804,0,0,1.02175,174.53,120.607)">
        <path d="M0,0C2,2 2,2 2,5L4,5C3.438,6.938 3.438,6.938 2,9C-1.313,10 -1.313,10 -5,10C-7.938,8.063 -7.938,8.063 -10,6C-9.67,5.34 -9.34,4.68 -9,4C-8.423,4.516 -7.845,5.031 -7.25,5.563C-5.122,7.265 -5.122,7.265 -2.75,6.688C-1.884,6.347 -1.884,6.347 -1,6C-0.67,4.02 -0.34,2.04 0,0Z" style="fill:rgb(208,75,3);fill-rule:nonzero;"/>
    </g>
    <g transform="matrix(0.996804,0,0,1.02175,42.9515,175.781)">
        <path d="M0,0C2.875,-0.125 2.875,-0.125 6,0C6.66,0.66 7.32,1.32 8,2C10.662,2.463 10.662,2.463 13.625,2.625C15.129,2.737 15.129,2.737 16.664,2.852C17.435,2.901 18.206,2.95 19,3C16.393,5.607 14.527,5.239 10.973,5.266C9,5 9,5 6,3C3.931,2.973 3.931,2.973 1.813,3.375C0.554,3.581 -0.704,3.788 -2,4C-1.34,2.68 -0.68,1.36 0,0Z" style="fill:rgb(46,14,14);fill-rule:nonzero;"/>
    </g>
    <g transform="matrix(0.996804,0,0,1.02175,40.9579,137.977)">
        <path d="M0,0C1.765,3.088 2,4.233 2,8C4.475,8.99 4.475,8.99 7,10L7,12L14,12C11.428,13.619 10.323,14.044 7.25,13.625C6.136,13.316 6.136,13.316 5,13L5,11L2,11C1.34,10.34 0.68,9.68 0,9C-0.99,8.34 -1.275,7.575 -1.275,7.575C-1.275,7.575 -1.68,6.34 -1,6C-0.342,2.971 -0.342,2.971 0,0Z" style="fill:rgb(232,104,16);fill-rule:nonzero;"/>
    </g>
    <g transform="matrix(0.996804,0,0,1.02175,89.8013,40.9108)">
        <path d="M0,0C1.113,3.84 0.818,5.364 -1,9C-2.611,11.704 -4.285,14.361 -6,17C-7,14 -7,14 -5.566,10.645C-4.909,9.362 -4.24,8.085 -3.563,6.813C-3.224,6.158 -2.886,5.504 -2.537,4.83C-1.7,3.215 -0.851,1.607 0,0Z" style="fill:rgb(251,71,7);fill-rule:nonzero;"/>
    </g>
    <g transform="matrix(0.996804,0,0,1.02175,38.9643,211.543)">
        <path d="M0,0C1.738,3.228 3.002,6.47 4,10C3.67,10.66 3.34,11.32 3,12L0,12C-0.66,12.66 -1.32,13.32 -2,14C-2.18,8.78 -1.971,4.927 0,0Z" style="fill:rgb(207,94,16);fill-rule:nonzero;"/>
    </g>
    <g transform="matrix(0.996804,0,0,1.02175,28.9963,212.564)">
        <path d="M0,0L1,0C1.054,1.937 1.093,3.875 1.125,5.813C1.148,6.891 1.171,7.97 1.195,9.082C1,12 1,12 -1,15C-1.99,14.01 -2.98,13.02 -4,12C-3.67,11.01 -3.34,10.02 -3,9L-2,9C-1.783,7.051 -1.783,7.051 -1.563,5.063C-1.125,1.125 -1.125,1.125 0,0Z" style="fill:rgb(240,35,8);fill-rule:nonzero;"/>
    </g>
    <g transform="matrix(0.996804,0,0,1.02175,33.9803,154.325)">
        <path d="M0,0C1.32,0.66 2.64,1.32 4,2C3.67,2.99 3.34,3.98 3,5C1.014,5.706 -0.988,6.369 -3,7C-5.302,8.516 -5.302,8.516 -7,10C-6.67,8.02 -6.34,6.04 -6,4C-5.01,3.67 -4.02,3.34 -3,3C-2.34,3.33 -1.68,3.66 -1,4C-0.67,2.68 -0.34,1.36 0,0Z" style="fill:rgb(242,44,13);fill-rule:nonzero;"/>
    </g>
    <g transform="matrix(0.996804,0,0,1.02175,39.9611,212.564)">
        <path d="M0,0L2,0L2,2C5.63,2.66 9.26,3.32 13,4L13,2C16,3 16,3 18,4L18,6C11.749,5.57 5.958,4.986 0,3L0,0Z" style="fill:rgb(252,242,197);fill-rule:nonzero;"/>
    </g>
    <g transform="matrix(0.996804,0,0,1.02175,177.52,91.9981)">
        <path d="M0,0C3.3,0.33 6.6,0.66 10,1C10.33,2.65 10.66,4.3 11,6C6.49,5.469 3.616,3.691 0,1L0,0Z" style="fill:rgb(242,30,4);fill-rule:nonzero;"/>
    </g>
    <g transform="matrix(0.996804,0,0,1.02175,163.565,200.303)">
        <path d="M0,0C2.629,0.451 4.88,0.945 7.313,2.063C11.001,3.349 14.104,3.132 18,3L18,5C12.694,6.36 8.091,5.907 3,4C0.938,1.875 0.938,1.875 0,0Z" style="fill:rgb(24,10,14);fill-rule:nonzero;"/>
    </g>
    <g transform="matrix(0.996804,0,0,1.02175,70.862,195.195)">
        <path d="M0,0C3.217,1.442 5.587,3.268 8.25,5.563C12.597,9.037 15.483,9.9 21,10L21,11C16.218,11.617 13.432,11.871 9.246,9.324C5.625,6.441 2.578,3.866 0,0Z" style="fill:rgb(20,12,14);fill-rule:nonzero;"/>
    </g>
    <g transform="matrix(0.996804,0,0,1.02175,229.354,99.1504)">
        <path d="M0,0C0.99,0.33 1.98,0.66 3,1C4.188,4.063 4.188,4.063 5,7C3.68,6.67 2.36,6.34 1,6L1,12C0.01,12.495 0.01,12.495 -1,13C-0.67,8.71 -0.34,4.42 0,0Z" style="fill:rgb(239,32,5);fill-rule:nonzero;"/>
    </g>
    <g transform="matrix(0.996804,0,0,1.02175,128.677,180.89)">
        <path d="M0,0C2.729,0.033 5.297,0.564 8,1C8.33,1.99 8.66,2.98 9,4C5.7,4.33 2.4,4.66 -1,5C-1.33,4.01 -1.66,3.02 -2,2C-1.34,1.34 -0.68,0.68 0,0Z" style="fill:rgb(50,24,15);fill-rule:nonzero;"/>
    </g>
    <g transform="matrix(0.996804,0,0,1.02175,48.9323,107.324)">
        <path d="M0,0C-1.556,3.819 -3.956,6.26 -7,9L-9,9C-8.333,7.667 -7.667,6.333 -7,5C-6.67,4.278 -6.34,3.556 -6,2.813C-4.408,-0.072 -3.256,0 0,0Z" style="fill:rgb(249,33,4);fill-rule:nonzero;"/>
    </g>
    <g transform="matrix(0.996804,0,0,1.02175,68.8684,96.0851)">
        <path d="M0,0C-3.649,3.04 -7.744,4.965 -12,7C-11.273,3.219 -11.273,3.219 -8.813,1.25C-5.644,-0.158 -3.43,-0.239 0,0Z" style="fill:rgb(251,53,13);fill-rule:nonzero;"/>
    </g>
    <g transform="matrix(0.996804,0,0,1.02175,141.635,9.23658)">
        <path d="M0,0L2,0C1.01,5.28 0.02,10.56 -1,16L-2,16C-3.199,9.627 -3.065,5.762 0,0Z" style="fill:rgb(251,61,9);fill-rule:nonzero;"/>
    </g>
    <g transform="matrix(0.996804,0,0,1.02175,163.565,88.9329)">
        <path d="M0,0C1.938,0.087 3.876,0.195 5.813,0.313C7.431,0.4 7.431,0.4 9.082,0.488C12.175,1.031 13.13,1.553 15,4C11.821,5.59 9.294,3.983 6,3L3,3C1.313,1.5 1.313,1.5 0,0Z" style="fill:rgb(244,53,14);fill-rule:nonzero;"/>
    </g>
    <g transform="matrix(0.996804,0,0,1.02175,12.0506,203.369)">
        <path d="M0,0C3.68,3.382 5.979,6.425 8,11C6.25,10.875 6.25,10.875 4,10C1.066,6.333 0,4.769 0,0Z" style="fill:rgb(241,33,9);fill-rule:nonzero;"/>
    </g>
    <g transform="matrix(0.996804,0,0,1.02175,127.68,185.999)">
        <path d="M0,0L13,0C13.33,0.66 13.66,1.32 14,2C9.71,2.66 5.42,3.32 1,4C0.67,2.68 0.34,1.36 0,0Z" style="fill:rgb(227,71,0);fill-rule:nonzero;"/>
    </g>
    <g transform="matrix(0.996804,0,0,1.02175,98.7725,28.6498)">
        <path d="M0,0C0.33,0.99 0.66,1.98 1,3C-0.363,5.262 -0.363,5.262 -2.313,7.688C-2.948,8.496 -3.584,9.304 -4.238,10.137C-4.82,10.752 -5.401,11.366 -6,12L-8,12C-7.584,7.145 -5.541,5.196 -2,2C-1.34,1.34 -0.68,0.68 0,0Z" style="fill:rgb(251,74,9);fill-rule:nonzero;"/>
    </g>
    <g transform="matrix(0.996804,0,0,1.02175,222.376,110.39)">
        <path d="M0,0C0.66,1.32 1.32,2.64 2,4C2.99,4.66 3.98,5.32 5,6C4.67,7.98 4.34,9.96 4,12C3.01,12.33 2.02,12.66 1,13C0.67,8.71 0.34,4.42 0,0Z" style="fill:rgb(229,55,18);fill-rule:nonzero;"/>
    </g>
    <g transform="matrix(0.996804,0,0,1.02175,81.8269,58.2805)">
        <path d="M0,0C0.66,0.66 1.32,1.32 2,2C1.677,5.713 0.996,8.831 -1,12C-1.99,12.495 -1.99,12.495 -3,13C-2.69,11.395 -2.377,9.791 -2.063,8.188C-1.888,7.294 -1.714,6.401 -1.535,5.48C-1,3 -1,3 0,0Z" style="fill:rgb(252,63,8);fill-rule:nonzero;"/>
    </g>
    <g transform="matrix(0.996804,0,0,1.02175,144.687,0.998736)">
        <path d="M0,0C1.454,0.031 1.454,0.031 2.938,0.063C1.188,5.813 1.188,5.813 -1.063,8.063C-1.616,5.987 -2.063,4.219 -2.063,2.063C-2.723,1.733 -3.382,1.403 -4.063,1.063C-3.063,0.063 -3.063,0.063 0,0Z" style="fill:rgb(244,58,8);fill-rule:nonzero;"/>
    </g>
    <g transform="matrix(0.996804,0,0,1.02175,40.9579,209.499)">
        <path d="M0,0C10.558,0.964 10.558,0.964 15,2L15,3C10.545,3.495 10.545,3.495 6,4L6,2L3,2C2.67,2.66 2.34,3.32 2,4L2,2L0,2L0,0Z" style="fill:rgb(249,242,201);fill-rule:nonzero;"/>
    </g>
    <g transform="matrix(0.996804,0,0,1.02175,227.36,96.0851)">
        <path d="M0,0C0.99,0.99 1.98,1.98 3,3C2.891,5.692 2.647,8.057 2.188,10.688C2.079,11.389 1.97,12.091 1.857,12.814C1.587,14.545 1.295,16.273 1,18L0,18L0,0Z" style="fill:rgb(228,59,21);fill-rule:nonzero;"/>
    </g>
    <g transform="matrix(0.996804,0,0,1.02175,147.616,97.1069)">
        <path d="M0,0C4.971,0.412 9.445,0.796 14,3C13.67,3.66 13.34,4.32 13,5C8.71,3.68 4.42,2.36 0,1L0,0Z" style="fill:rgb(251,172,30);fill-rule:nonzero;"/>
    </g>
    <g transform="matrix(0.996804,0,0,1.02175,115.718,172.716)">
        <path d="M0,0C2.64,0.66 5.28,1.32 8,2L8,4C10.97,4.495 10.97,4.495 14,5L14,6C8.038,5.589 4.684,4.747 0,1L0,0Z" style="fill:rgb(118,169,2);fill-rule:nonzero;"/>
    </g>
    <g transform="matrix(0.996804,0,0,1.02175,217.392,165.564)">
        <path d="M0,0C2.463,1.827 3.834,3.23 4.488,6.27C4.725,8.515 4.904,10.745 5,13L4,13C3.567,11.608 3.567,11.608 3.125,10.188C2.113,6.902 2.113,6.902 0,4L0,0Z" style="fill:rgb(116,78,17);fill-rule:nonzero;"/>
    </g>
    <g transform="matrix(0.996804,0,0,1.02175,163.565,215.63)">
        <path d="M0,0L3,0L3,5L-7,5L-7,4L0,4L0,0Z" style="fill:rgb(253,227,141);fill-rule:nonzero;"/>
    </g>
    <g transform="matrix(0.996804,0,0,1.02175,23.0154,166.586)">
        <path d="M0,0C2,3 2,3 1.758,5.48C1.549,6.374 1.34,7.267 1.125,8.188C0.921,9.089 0.718,9.99 0.508,10.918C0.256,11.949 0.256,11.949 0,13L-1,13C-1.061,12.374 -1.121,11.747 -1.184,11.102C-1.267,10.284 -1.351,9.467 -1.438,8.625C-1.519,7.813 -1.6,7.001 -1.684,6.164C-1.891,3.957 -1.891,3.957 -3,2L0,2L0,0Z" style="fill:rgb(236,41,8);fill-rule:nonzero;"/>
    </g>
    <g transform="matrix(0.996804,0,0,1.02175,158.062,96.5561)">
        <path d="M0,0C0.893,0.302 1.787,0.603 2.707,0.914C3.608,1.211 4.509,1.507 5.438,1.813C6.468,2.172 6.468,2.172 7.52,2.539C5.109,4.076 4.019,4.637 1.16,4.078C0.371,3.776 -0.418,3.475 -1.23,3.164C-2.03,2.868 -2.829,2.571 -3.652,2.266C-4.256,2.026 -4.859,1.786 -5.48,1.539C-2.48,-0.461 -2.48,-0.461 0,0Z" style="fill:rgb(223,96,12);fill-rule:nonzero;"/>
    </g>
    <g transform="matrix(0.996804,0,0,1.02175,133.661,189.064)">
        <path d="M0,0C-0.33,1.65 -0.66,3.3 -1,5L-4,5C-5.688,3 -5.688,3 -7,1C-4.509,0.313 -2.621,0 0,0Z" style="fill:rgb(59,21,11);fill-rule:nonzero;"/>
    </g>
    <g transform="matrix(0.996804,0,0,1.02175,3.07937,143.086)">
        <path d="M0,0C0.66,0.33 1.32,0.66 2,1C1.414,7.152 1.414,7.152 1,9C0.01,9.495 0.01,9.495 -1,10C-0.67,6.7 -0.34,3.4 0,0Z" style="fill:rgb(247,52,18);fill-rule:nonzero;"/>
    </g>
    <g transform="matrix(0.996804,0,0,1.02175,163.565,100.172)">
        <path d="M0,0C2.875,-0.125 2.875,-0.125 6,0C6.66,0.66 7.32,1.32 8,2C5.688,3.125 5.688,3.125 3,4C2.01,3.34 1.02,2.68 0,2L0,0Z" style="fill:rgb(211,85,6);fill-rule:nonzero;"/>
    </g>
    <g transform="matrix(0.996804,0,0,1.02175,29.9931,171.694)">
        <path d="M0,0L1,0L1,8C0.01,8.495 0.01,8.495 -1,9C-1.625,6.188 -1.625,6.188 -2,3C-1.34,2.01 -0.68,1.02 0,0Z" style="fill:rgb(165,80,12);fill-rule:nonzero;"/>
    </g>
    <g transform="matrix(0.996804,0,0,1.02175,195.463,115.498)">
        <path d="M0,0C1.98,1.65 3.96,3.3 6,5C5.34,5.66 4.68,6.32 4,7C2,5.188 2,5.188 0,3L0,0Z" style="fill:rgb(198,76,11);fill-rule:nonzero;"/>
    </g>
    <g transform="matrix(0.996804,0,0,1.02175,204.434,109.368)">
        <path d="M0,0L3,0C6,3.333 6,3.333 6,6C3.378,4.951 2.206,4.351 0.75,1.875C0.502,1.256 0.255,0.637 0,0Z" style="fill:rgb(238,33,8);fill-rule:nonzero;"/>
    </g>
    <g transform="matrix(0.996804,0,0,1.02175,27.9995,89.9546)">
        <path d="M0,0C1.042,3.126 1.238,4.047 0,7C-2.063,8.25 -2.063,8.25 -4,9C-2.941,5.597 -1.991,2.986 0,0Z" style="fill:rgb(249,61,13);fill-rule:nonzero;"/>
    </g>
    <g transform="matrix(0.996804,0,0,1.02175,159.578,29.6715)">
        <path d="M0,0C1.98,0.99 1.98,0.99 4,2C3.67,4.97 3.34,7.94 3,11L2,11C1.772,9.014 1.544,7.029 1.316,5.043C1.028,2.806 1.028,2.806 0,0Z" style="fill:rgb(245,69,10);fill-rule:nonzero;"/>
    </g>
    <g transform="matrix(0.996804,0,0,1.02175,28.8708,207.522)">
        <path d="M0.207,-0.851C0.867,-0.851 1.504,0.023 2.184,0.023C1.854,1.013 2.053,5.269 1.713,6.289C1.383,5.299 0.547,0.169 0.207,-0.851Z" style="fill:rgb(201,84,0);fill-rule:nonzero;"/>
    </g>
    <g transform="matrix(2.394,0,0,8.16421,209.675,94.8774)">
        <path d="M-2.17,-3.126C2.444,-1.425 4.754,1.45 6.031,2.399C-2.483,0.093 -4.044,0.14 -4.384,0.82C-5.044,0.16 -1.7,-0.808 -2.17,-3.126Z" style="fill:rgb(255,84,0);fill-rule:nonzero;"/>
    </g>
    <g transform="matrix(0.996804,0,0,1.02175,92.7917,88.9329)">
        <path d="M0,0L4,1L0,0Z" style="fill:rgb(255,121,12);fill-rule:nonzero;"/>
    </g>
    <g transform="matrix(0.996804,0,0,1.02175,146.462,68.4852)">
        <path d="M-3.833,-51.84C-11.838,-9.94 11.88,-3.602 12.89,-3.097C15.349,-5.003 -36.326,-6.262 -47.02,3.944C-47.35,2.954 -49.749,-32.941 -3.833,-51.84Z" style="fill:rgb(255,106,0);fill-rule:nonzero;"/>
    </g>
    <g transform="matrix(0.996804,0,0,1.02175,31.8755,156.957)">
        <path d="M1.012,-4.945C2.002,-4.45 0.116,1.806 3.794,1.276C2.804,1.771 -2.394,4.761 -3.404,5.266C-0.46,2.72 1.012,-4.265 1.012,-4.945Z" style="fill:rgb(255,84,0);fill-rule:nonzero;"/>
    </g>
    <g transform="matrix(0.996804,0,0,1.02175,210.606,101.57)">
        <path d="M-2.709,-26.666C11.768,-3.959 15.435,15.806 14.745,19.737C14.745,19.737 -1.945,-5.424 -5.004,6.026C-3.941,-0.497 0.994,-9.31 -2.709,-26.666Z" style="fill:rgb(255,169,0);fill-rule:nonzero;"/>
    </g>
    <g transform="matrix(0.996804,0,0,1.02175,144.626,93.0199)">
        <path d="M0,0L3,1L0,0Z" style="fill:rgb(255,212,0);fill-rule:nonzero;"/>
    </g>
    <g transform="matrix(0.996804,0,0,1.02175,180.51,247.304)">
        <path d="M0,0L2,1L0,0Z" style="fill:rgb(191,63,0);fill-rule:nonzero;"/>
    </g>
    <g transform="matrix(0.996804,0,0,1.02175,63.8844,246.282)">
        <path d="M0,0L2,1L0,0Z" style="fill:rgb(255,63,0);fill-rule:nonzero;"/>
    </g>
    <g transform="matrix(0.996804,0,0,1.02175,15.041,214.608)">
        <path d="M0,0L2,1L0,0Z" style="fill:rgb(255,106,0);fill-rule:nonzero;"/>
    </g>
    <g transform="matrix(0.996804,0,0,1.02175,35.9739,212.564)">
        <path d="M0,0L2,1L0,0Z" style="fill:rgb(229,51,25);fill-rule:nonzero;"/>
    </g>
    <g transform="matrix(0.996804,0,0,1.02175,29.9931,200.303)">
        <path d="M0,0L2,1L0,0Z" style="fill:rgb(255,0,0);fill-rule:nonzero;"/>
    </g>
    <g transform="matrix(0.996804,0,0,1.02175,7.06658,150.238)">
        <path d="M0,0L2,1L0,0Z" style="fill:rgb(255,31,31);fill-rule:nonzero;"/>
    </g>
    <g transform="matrix(0.996804,0,0,1.02175,194.466,112.433)">
        <path d="M0,0L2,1L0,0Z" style="fill:rgb(255,0,0);fill-rule:nonzero;"/>
    </g>
    <g transform="matrix(0.996804,0,0,1.02175,54.9132,109.368)">
        <path d="M0,0L2,1L0,0Z" style="fill:rgb(255,255,0);fill-rule:nonzero;"/>
    </g>
    <g transform="matrix(0.996804,0,0,1.02175,187.488,100.172)">
        <path d="M0,0L2,1L0,0Z" style="fill:rgb(255,127,0);fill-rule:nonzero;"/>
    </g>
    <g transform="matrix(0.996804,0,0,1.02175,66.8748,98.1286)">
        <path d="M0,0L2,1L0,0Z" style="fill:rgb(255,127,0);fill-rule:nonzero;"/>
    </g>
    <g transform="matrix(0.996804,0,0,1.02175,179.514,96.0851)">
        <path d="M0,0L2,1L0,0Z" style="fill:rgb(255,51,25);fill-rule:nonzero;"/>
    </g>
    <g transform="matrix(0.996804,0,0,1.02175,164.562,90.9764)">
        <path d="M0,0L2,1L0,0Z" style="fill:rgb(255,106,0);fill-rule:nonzero;"/>
    </g>
    <g transform="matrix(0.996804,0,0,1.02175,153.597,61.3457)">
        <path d="M0,0L2,1L0,0Z" style="fill:rgb(255,106,0);fill-rule:nonzero;"/>
    </g>
    <g transform="matrix(0.996804,0,0,1.02175,61.8908,46.0195)">
        <path d="M0,0L2,1L0,0Z" style="fill:rgb(255,0,0);fill-rule:nonzero;"/>
    </g>
    <g transform="matrix(0.996804,0,0,1.02175,23.2886,132.95)">
        <path d="M-10.47,0.497C-9.48,0.992 -3.169,-1.308 -2.159,-0.803C-11.841,14.405 -12.879,23.31 -13.286,23.088C-13.286,22.428 -12.458,9.844 -10.47,0.497Z" style="fill:rgb(255,84,0);fill-rule:nonzero;"/>
    </g>
    <g transform="matrix(0.996804,0,0,1.02175,150.606,93.0199)">
        <path d="M-39.435,-19.112C-26.321,-27.308 -4.165,-26.67 9.292,-26.719C2.139,-29.919 -9.915,-43.858 -8.001,-64.808C-28.429,-40.855 -35.199,-29.149 -39.435,-19.112Z" style="fill:rgb(255,212,0);fill-rule:nonzero;"/>
    </g>
    <g transform="matrix(0.996804,0,0,1.02175,99.5371,154.629)">
        <path d="M0,0L52,0C51.67,1.98 51.34,3.96 51,6L63,6L63,7C52.605,7.495 52.605,7.495 42,8L42,6C41.01,5.67 40.02,5.34 39,5C39.33,4.67 39.66,4.34 40,4C21.52,3.67 3.04,3.34 -16,3C-15.34,4.32 -14.68,5.64 -14,7C-17.867,8.266 -21.732,8.112 -25.75,8.063C-26.447,8.058 -27.145,8.053 -27.863,8.049C-29.576,8.037 -31.288,8.019 -33,8C-32.67,7.01 -32.34,6.02 -32,5L-24,5L-24,3C-24.66,2.67 -25.32,2.34 -26,2C-17.42,1.67 -8.84,1.34 0,1L0,0Z" style="fill:rgb(252,236,158);fill-rule:nonzero;"/>
    </g>
    <g transform="matrix(0.996804,0,0,1.02175,201.427,150.786)">
        <path d="M0.988,0.629C0.988,2.609 0,3.96 0,6C-5.768,8.349 -11.221,9.833 -17.375,10.75C-18.232,10.88 -19.089,11.01 -19.972,11.144C-28.739,12.33 -37.227,11.879 -46,11L-46,6C-47.32,5.34 -48.64,4.68 -50,4C-48.693,3.951 -47.386,3.902 -46.039,3.852C-36.975,3.483 -27.955,3.013 -18.938,2C-18.195,1.917 -17.453,1.834 -16.688,1.749C-1.658,-0.032 -0.669,0.597 0.988,0.629Z" style="fill:rgb(250,214,104);fill-rule:nonzero;"/>
    </g>
    <g transform="matrix(0.996804,0,0,1.02175,180.671,153.273)">
        <path d="M0,0C4.29,0.33 8.58,0.66 13,1L13,3L16,3L16,5C8.571,7.143 8.571,7.143 5,8C5.33,6.68 5.66,5.36 6,4C4.02,3.01 2.04,2.02 0,1L0,0Z" style="fill:rgb(245,199,92);fill-rule:nonzero;"/>
    </g>
</svg>
